<?xml version="1.0" encoding="utf-8"?>
<!-- Generator: Adobe Illustrator 16.0.3, SVG Export Plug-In . SVG Version: 6.00 Build 0)  -->
<!DOCTYPE svg PUBLIC "-//W3C//DTD SVG 1.1//EN" "http://www.w3.org/Graphics/SVG/1.1/DTD/svg11.dtd">
<svg version="1.1" id="Capa_1" xmlns="http://www.w3.org/2000/svg" xmlns:xlink="http://www.w3.org/1999/xlink" x="0px" y="0px"
	 width="100px" height="100px" viewBox="0 0 100 100" enable-background="new 0 0 100 100" xml:space="preserve">
<path fill="#121211" d="M39.586,93.335h21.122c0,0-2.364,6.012-10.781,6.012C41.51,99.347,39.586,93.335,39.586,93.335z"/>
<path fill="#444342" d="M64.296,88.024c0,1.428-0.619,2.585-1.381,2.585H37.22c-0.763,0-1.381-1.157-1.381-2.585l0,0
	c0-1.428,0.618-2.586,1.381-2.586h25.695C63.677,85.438,64.296,86.597,64.296,88.024L64.296,88.024z"/>
<path fill="#C9C9C9" d="M37.261,87.213L37.261,87.213c0-0.651,0.561-1.18,1.252-1.18h23.31"/>
<path fill="#444342" d="M69.626,80.209c0,1.428-0.844,2.585-1.886,2.585H32.635c-1.042,0-1.886-1.157-1.886-2.585l0,0
	c0-1.429,0.844-2.586,1.886-2.586H67.74C68.782,77.623,69.626,78.78,69.626,80.209L69.626,80.209z"/>
<path fill="#C9C9C9" d="M31.704,79.518L31.704,79.518c0-0.651,0.814-1.18,1.818-1.18h33.86"/>
<g>
	<path fill="#FCD012" d="M39.173,75.521c-6.123,0-10.575-1.123-13.355-3.37c-2.78-2.247-4.171-6.25-4.171-12.008v-10.11
		c0-5.167-2.135-7.752-6.404-7.752v-7.752c4.269,0,6.404-2.682,6.404-8.047v-9.396c0-5.786,1.376-9.852,4.129-12.197
		c2.752-2.345,7.218-3.518,13.397-3.518V9.25c-4.494,0-6.741,2.444-6.741,7.331v8.974c0,6.741-2.163,10.996-6.488,12.766v0.168
		c4.325,1.742,6.488,6.053,6.488,12.934v8.637c0,2.753,0.527,4.704,1.58,5.856c1.053,1.151,2.773,1.728,5.161,1.728V75.521z"/>
	<path fill="#F8B70D" d="M25.944,38.321c-4.282,2.219-4.559,2.55-10.701,3.96v-7.752c4.269,0,6.404-2.682,6.404-8.047v-9.396
		c0-5.786,1.376-9.852,4.129-12.197c2.752-2.345,7.218-3.518,13.397-3.518V9.25c-4.494,0-6.741,2.444-6.741,7.331v8.974
		C32.432,32.296,30.269,36.551,25.944,38.321v0.168"/>
</g>
<g>
	<path fill="#FCD012" d="M61.201,1.372c6.123,0,10.574,1.124,13.355,3.37c2.781,2.247,4.171,6.25,4.171,12.008v10.11
		c0,5.168,2.135,7.752,6.404,7.752v7.752c-4.27,0-6.404,2.682-6.404,8.047v9.395c0,5.787-1.376,9.853-4.129,12.197
		c-2.752,2.346-7.219,3.518-13.397,3.518v-7.878c4.494,0,6.741-2.443,6.741-7.331v-8.974c0-6.741,2.163-10.997,6.488-12.766v-0.168
		c-4.325-1.742-6.488-6.053-6.488-12.934v-8.637c0-2.753-0.527-4.705-1.58-5.856c-1.054-1.151-2.773-1.728-5.161-1.728V1.372z"/>
	<path fill="#F8B70D" d="M74.431,38.573c4.281-2.22,4.559-2.55,10.701-3.96v7.752c-4.27,0-6.404,2.682-6.404,8.047v9.395
		c0,5.787-1.376,9.853-4.129,12.197c-2.752,2.346-7.219,3.518-13.397,3.518v-7.878c4.494,0,6.741-2.443,6.741-7.331v-8.974
		C67.942,44.598,70.105,40.342,74.431,38.573v-0.168"/>
</g>
<g>
	<path fill="#2A2929" d="M53.019,66.379c0,2.943,1.137,4.415,3.412,4.415c0.919,0,1.742-0.115,2.474-0.345v4.634
		c-0.396,0.104-0.924,0.203-1.581,0.297c-0.658,0.095-1.352,0.142-2.082,0.142c-1.023,0-1.984-0.168-2.881-0.501
		c-0.897-0.334-1.676-0.845-2.333-1.534c-0.658-0.688-1.18-1.551-1.566-2.584c-0.387-1.033-0.58-2.238-0.58-3.615V43.27h5.136
		V66.379z"/>
</g>
<circle fill="#FCD012" cx="50.188" cy="33.028" r="6.795"/>
<g>
	<path fill="#F8B70D" d="M55.618,31.722c0,0,0.066,0.176,0.15,0.482c0.038,0.152,0.092,0.338,0.128,0.549
		c0.046,0.211,0.104,0.442,0.059,0.731c-0.02,0.283-0.045,0.603-0.101,0.942c-0.032,0.359-0.193,0.647-0.32,0.988
		c-0.146,0.326-0.266,0.692-0.516,0.98c-0.222,0.307-0.467,0.607-0.712,0.906c-0.298,0.245-0.598,0.491-0.905,0.713
		c-0.286,0.251-0.653,0.369-0.979,0.517c-0.337,0.125-0.64,0.292-0.976,0.315c-0.325,0.051-0.633,0.077-0.911,0.096
		c-0.272,0.046-0.534-0.007-0.76-0.051c-0.225-0.035-0.417-0.088-0.572-0.127c-0.31-0.084-0.475-0.152-0.475-0.152
		s0.17-0.102,0.449-0.245c0.139-0.069,0.304-0.157,0.488-0.233c0.185-0.081,0.388-0.164,0.592-0.306
		c0.206-0.131,0.422-0.267,0.651-0.389c0.24-0.096,0.436-0.319,0.666-0.467c0.22-0.171,0.475-0.295,0.669-0.515
		c0.205-0.201,0.427-0.385,0.649-0.57c0.185-0.222,0.369-0.443,0.57-0.648c0.222-0.193,0.344-0.449,0.517-0.668
		c0.146-0.227,0.375-0.436,0.463-0.654c0.116-0.214,0.253-0.42,0.384-0.62c0.142-0.187,0.23-0.421,0.313-0.62
		c0.078-0.199,0.167-0.371,0.235-0.512C55.518,31.881,55.618,31.722,55.618,31.722z"/>
</g>
</svg>
