<svg xmlns="http://www.w3.org/2000/svg" baseProfile="tiny" width="100" height="100" fill="#ffb700" xmlns:v="https://vecta.io/nano"><path d="M39.586 93.335h21.122s-2.364 6.013-10.781 6.013-10.341-6.013-10.341-6.013zm24.71-5.312c0 1.429-.619 2.586-1.381 2.586H37.22c-.763 0-1.381-1.157-1.381-2.586h0c0-1.428.618-2.586 1.381-2.586h25.695c.762.001 1.381 1.161 1.381 2.586h0zm5.33-7.814c0 1.428-.844 2.585-1.886 2.585H32.635c-1.042 0-1.886-1.157-1.886-2.585h0c0-1.43.844-2.586 1.886-2.586H67.74c1.042 0 1.886 1.156 1.886 2.586h0zm-30.453-4.688c-6.123 0-10.575-1.123-13.355-3.371s-4.171-6.25-4.171-12.008V50.033c0-5.167-2.135-7.752-6.404-7.752v-7.752c4.269 0 6.404-2.682 6.404-8.047v-9.396c0-5.786 1.376-9.852 4.129-12.197s7.218-3.518 13.397-3.518V9.25c-4.494 0-6.741 2.444-6.741 7.331v8.974c0 6.741-2.163 10.996-6.488 12.766v.168c4.325 1.742 6.488 6.053 6.488 12.934v8.638c0 2.752.527 4.703 1.58 5.855s2.773 1.729 5.161 1.729v7.876z"/><path d="M25.944 38.321c-4.282 2.219-4.559 2.55-10.701 3.96v-7.752c4.269 0 6.404-2.682 6.404-8.047v-9.396c0-5.786 1.376-9.852 4.129-12.197s7.218-3.518 13.397-3.518V9.25c-4.494 0-6.741 2.444-6.741 7.331v8.974c0 6.741-2.163 10.996-6.488 12.766v.168M61.201 1.372c6.123 0 10.574 1.124 13.355 3.37s4.17 6.25 4.17 12.008v10.11c0 5.168 2.135 7.752 6.404 7.752v7.752c-4.27 0-6.404 2.682-6.404 8.047v9.396c0 5.786-1.375 9.853-4.129 12.196s-7.219 3.519-13.396 3.519v-7.879c4.494 0 6.74-2.442 6.74-7.33v-8.975c0-6.741 2.164-10.997 6.488-12.766v-.168c-4.324-1.742-6.488-6.053-6.488-12.934v-8.637c0-2.753-.526-4.705-1.58-5.856s-2.772-1.728-5.16-1.728V1.372z"/><path d="M74.432 38.573c4.28-2.22 4.559-2.55 10.7-3.96v7.752c-4.271 0-6.403 2.682-6.403 8.047v9.395c0 5.787-1.377 9.854-4.129 12.197s-7.22 3.518-13.397 3.518v-7.877c4.493 0 6.741-2.443 6.741-7.332v-8.974c-.003-6.741 2.161-10.997 6.488-12.766v-.168M53.02 66.379c0 2.943 1.137 4.415 3.412 4.415.918 0 1.741-.114 2.473-.345v4.634c-.396.104-.924.203-1.58.297a14.7 14.7 0 0 1-2.082.142c-1.023 0-1.984-.168-2.881-.5s-1.676-.846-2.333-1.535-1.18-1.551-1.566-2.584-.58-2.237-.58-3.614V43.27h5.136v23.109h.001z"/><circle cx="50.188" cy="33.028" r="6.795"/></svg>